<?xml version="1.0" encoding="utf-8"?>
<!-- Generator: Adobe Illustrator 23.0.3, SVG Export Plug-In . SVG Version: 6.00 Build 0)  -->
<svg version="1.1" id="katman_1" xmlns="http://www.w3.org/2000/svg" xmlns:xlink="http://www.w3.org/1999/xlink" x="0px" y="0px"
	 viewBox="0 0 181.8 118.4" style="enable-background:new 0 0 181.8 118.4;" xml:space="preserve">
<style type="text/css">
	.st0{fill-rule:evenodd;clip-rule:evenodd;fill:#ED1C24;}
	.st1{fill-rule:evenodd;clip-rule:evenodd;}
</style>
<g>
	<g>
		<path class="st0" d="M179.8,13c0,0-21.9-22.8-68.4-8C64.9,19.7,63.9,38.9,34,37.1C4,35.3,0,34,0,34s2.3,28.7,35.8,43.9
			C69.3,93,97.5,92.5,129.3,65.7C161,38.9,179.8,13,179.8,13z"/>
		<path class="st1" d="M157.5,117.7l-6.7-34.5c0,0-0.1-3.9-7.2-7.5c-7.1-3.6-16.1-5.9-16.1-5.9s1.6-0.9,4.9-3.2
			c13.2-8.9,22.7-19.1,29.9-26.8c7.2-7.6,19.5-24.5,19.5-24.5l-2.2-2.4l-29.8,32.1c0,0-12.8,10-15.5,9.1c-2.7-0.9,2.1-3.8-1.9-7.9
			s-8.9-9-13.4-9.9c-4.5-0.9-19.7,2.7-21.5,6.3C95.7,46.1,84.6,61,84.1,64.5c-0.4,3.5,3.1,7.2,8.9,0c5.8-7.2,10.7-15.3,15.2-16.2
			c4.5-0.9,7.1,2.8,7.1,2.8s1.9,3.4-0.8,12c-1.8,5.5-3.2,9.9-7.2,14.7c-4,4.9-1.3,10.7-1.3,10.7s-0.4,6.4-8,10.3
			c-7.6,3.9-21.6,6.3-27.3,14.3c-5.8,8,5.4,5,9.4,3.1c4.1-1.8,11.7-4.9,18.8-6.3c7.1-1.3,16.2-7.1,20.1-14.7
			c3.9-7.6,6.7-10.3,12-10.3c5.4,0,6.6,2.8,10.7,11.7c4.1,8.9,6.3,20.2,9.9,20.6C155.2,117.7,157.5,117.7,157.5,117.7z"/>
		<polygon class="st1" points="130.6,40.7 136.9,40.7 137.3,37.6 138.7,29.1 126.6,27.8 123.4,31.3 124.3,36.7 129.7,37.6 		"/>
	</g>
</g>
</svg>
