<?xml version="1.0" encoding="utf-8"?>
<!-- Generator: Adobe Illustrator 23.0.3, SVG Export Plug-In . SVG Version: 6.00 Build 0)  -->
<svg version="1.1" id="katman_1" xmlns="http://www.w3.org/2000/svg" xmlns:xlink="http://www.w3.org/1999/xlink" x="0px" y="0px"
	 viewBox="0 0 200 67.1" style="enable-background:new 0 0 200 67.1;" xml:space="preserve">
<style type="text/css">
	.st0{fill-rule:evenodd;clip-rule:evenodd;fill:#ED1C24;}
	.st1{fill-rule:evenodd;clip-rule:evenodd;}
	.st2{fill-rule:evenodd;clip-rule:evenodd;fill:#636466;}
</style>
<g>
	<g>
		<path class="st0" d="M79.3,5.7c0,0-9.7-10-30.2-3.5C28.6,8.7,28.2,17.2,15,16.4C1.8,15.6,0,15,0,15s1,12.7,15.8,19.3
			C30.6,41,43,40.8,57,29C71,17.2,79.3,5.7,79.3,5.7z"/>
		<path class="st1" d="M69.4,51.9l-3-15.2c0,0,0-1.7-3.2-3.3c-3.1-1.6-7.1-2.6-7.1-2.6s0.7-0.4,2.2-1.4c5.8-3.9,10-8.4,13.2-11.8
			s8.6-10.8,8.6-10.8l-1-1.1L66.1,19.8c0,0-5.6,4.4-6.8,4c-1.2-0.4,0.9-1.7-0.8-3.5c-1.8-1.8-3.9-4-5.9-4.4c-2-0.4-8.7,1.2-9.5,2.8
			c-0.8,1.6-5.7,8.1-5.9,9.7c-0.2,1.6,1.3,3.2,3.9,0c2.6-3.2,4.7-6.7,6.7-7.1c2-0.4,3.1,1.2,3.1,1.2s0.9,1.5-0.4,5.3
			c-0.8,2.4-1.4,4.4-3.2,6.5c-1.7,2.1-0.6,4.7-0.6,4.7s-0.2,2.8-3.5,4.6c-3.4,1.7-9.5,2.8-12.1,6.3c-2.5,3.5,2.4,2.2,4.2,1.4
			c1.8-0.8,5.2-2.2,8.3-2.8c3.1-0.6,7.1-3.1,8.9-6.5c1.7-3.4,2.9-4.6,5.3-4.6c2.4,0,2.9,1.2,4.7,5.1c1.8,3.9,2.8,8.9,4.4,9.1
			C68.5,51.9,69.4,51.9,69.4,51.9z"/>
		<polygon class="st1" points="57.6,18 60.4,18 60.6,16.6 61.2,12.9 55.8,12.3 54.4,13.8 54.8,16.2 57.2,16.6 		"/>
	</g>
	<g>
		<polygon class="st0" points="77.8,20.7 77.8,37.7 79.1,37.7 86.4,29.4 90.1,29.4 81.4,38.8 91.7,49.9 87.7,49.9 79,40 77.8,40 
			77.8,49.9 74.7,49.9 74.7,20.7 		"/>
		<path class="st0" d="M110.4,31.1c-1.1-1.3-3.6-2-7.4-2c-3.8,0-6.2,0.6-7.4,2c-1.1,1.3-1.7,4.2-1.7,8.6s0.6,7.3,1.7,8.6
			c1.1,1.3,3.6,2,7.4,2c3.8,0,6.2-0.6,7.4-2c1.1-1.3,1.7-4.2,1.7-8.6C112.1,35.3,111.5,32.4,110.4,31.1z M108,46.4
			c-0.6,0.8-2.3,1.3-4.9,1.3c-2.7,0-4.3-0.4-5-1.3c-0.6-0.9-0.9-3.1-0.9-6.8c0-3.6,0.3-5.9,0.9-6.7c0.6-0.9,2.3-1.3,5-1.3
			c2.7,0,4.3,0.4,4.9,1.3c0.6,0.8,1,3.1,1,6.7C109,43.3,108.6,45.6,108,46.4z"/>
		<path class="st0" d="M118.1,29.4h3l-0.3,2.4l0.1,0.1c1.2-1.9,3.1-2.9,5.9-2.9c3.8,0,5.7,1.9,5.7,5.8l0,1.4h-3l0.1-0.5
			c0-0.5,0.1-0.9,0.1-1.1c0-2.1-1.2-3.2-3.4-3.2c-3.4,0-5,2.1-5,6.2v12.3h-3L118.1,29.4L118.1,29.4z"/>
		<path class="st0" d="M150.4,29.4l0.1,2.8l-0.1,0c-1-2.1-3.2-3.1-6.6-3.1c-3.2,0-5.3,0.8-6.5,2.3c-1.2,1.5-1.7,4.3-1.7,8.4
			c0,4,0.6,6.7,1.7,8.2c1.1,1.5,3.2,2.2,6.3,2.2c3.7,0,5.9-0.9,6.7-2.8l0.1,0v4.1c0,2-0.4,3.3-1.2,4c-0.8,0.7-2.3,1-4.6,1
			c-2.2,0-3.6-0.3-4.3-0.8c-0.6-0.5-1-1.7-1-3.4h-2.9c0,2.6,0.6,4.3,1.7,5.3c1.1,0.9,3.2,1.4,6.2,1.4c3.4,0,5.8-0.6,7.1-1.7
			c1.3-1.1,1.9-3.2,1.9-6.1V29.4H150.4z M149.1,46.1c-0.8,1.1-2.3,1.6-4.7,1.6c-2.4,0-3.9-0.5-4.6-1.5c-0.7-1-1-3.2-1-6.6
			c0-3.4,0.3-5.5,1-6.5c0.7-1,2.2-1.5,4.6-1.5c2.4,0,4,0.5,4.7,1.5c0.8,1,1.1,3,1.1,6.1C150.3,42.7,149.9,45,149.1,46.1z"/>
		<g>
			<path class="st0" d="M176.3,29.4v20.5h-3l0.2-2.7l-0.1-0.1c-1,2-3.3,3-6.7,3c-4.8,0-7.2-2.4-7.2-7.1V29.4h3v13.6
				c0,1.9,0.3,3.1,0.9,3.7c0.6,0.6,1.8,0.9,3.6,0.9c2.4,0,4-0.5,4.8-1.4c0.9-0.9,1.3-2.7,1.3-5.2V29.4H176.3z"/>
			<rect x="162.5" y="23" class="st0" width="3.3" height="2.8"/>
			<rect x="170.4" y="23" class="st0" width="3.3" height="2.8"/>
		</g>
		<path class="st0" d="M182.8,29.4h2.9l-0.1,2.8l0.1,0.1c0.9-2.1,3.2-3.1,6.8-3.1c2.9,0,4.9,0.5,5.9,1.5c1,1,1.6,3,1.6,5.9v13.3h-3
			V36.8v-0.8c0-1.8-0.3-2.9-1-3.5c-0.7-0.6-2-0.9-3.9-0.9c-4.2,0-6.3,2-6.3,6v12.3h-3L182.8,29.4L182.8,29.4z"/>
	</g>
	<g>
		<path class="st2" d="M78.7,62.5l2.7-6.9h1L79.1,64c-0.4,1.1-0.8,1.8-1,2.2c-0.4,0.6-1,0.8-1.8,0.8c-0.1,0-0.2,0-0.2,0
			c-0.2,0-0.3,0-0.2,0v-0.9c0.1,0,0.1,0,0.3,0c0.6,0,1.1-0.3,1.5-0.9c0.1-0.2,0.4-0.8,0.8-1.9H78l-3.3-7.7h1L78.7,62.5z"/>
		<path class="st2" d="M92.2,56.9c-0.2-0.6-0.8-1-1.6-1.2c-0.3-0.1-1-0.1-1.9-0.1c-0.4,0-0.8,0-1.4,0.1c-0.6,0.1-1.1,0.3-1.3,0.6
			c-0.3,0.4-0.4,0.9-0.4,1.7h0.9c0-0.4,0.1-0.7,0.2-1c0.1-0.2,0.5-0.4,1.1-0.4c0.2,0,0.6,0,1.2,0c1.1,0,1.8,0.1,2.1,0.4
			c0.3,0.3,0.5,0.9,0.5,1.9v0.8c-0.2-0.3-0.3-0.5-0.5-0.7c-0.3-0.2-1.1-0.3-2.4-0.3c-0.9,0-1.4,0-1.6,0c-0.6,0.1-1,0.2-1.3,0.6
			c-0.3,0.4-0.5,1-0.5,1.9c0,1,0.3,1.6,0.8,1.9c0.4,0.2,1,0.4,1.7,0.4h0.8c0.7,0,1.3,0,1.6,0c0.6-0.1,1.1-0.4,1.3-1v0.9h0.9v-4.8
			C92.5,57.8,92.4,57.3,92.2,56.9z M90.4,62.4c-0.3,0.1-0.9,0.1-1.8,0.1l-1,0c-0.4,0-0.8-0.1-0.9-0.2c-0.3-0.2-0.4-0.5-0.4-1
			c0-0.7,0.3-1.2,0.9-1.4c0.2,0,0.7-0.1,1.6-0.1c0,0,0.1,0,0.1,0c0.1,0,0.2,0,0.2,0c0,0,0.1,0,0.4,0c0.7,0,1.1,0,1.4,0.1
			c0.5,0.2,0.8,0.6,0.8,1.2C91.6,61.8,91.2,62.3,90.4,62.4z"/>
		<polygon class="st2" points="102.9,55.6 102.9,56.8 97.6,62.4 102.9,62.4 102.9,63.4 96.4,63.4 96.4,62.2 101.7,56.6 96.6,56.6 
			96.6,55.6 		"/>
		<rect x="106.8" y="55.7" class="st2" width="0.9" height="7.7"/>
		<rect x="112.2" y="52.3" class="st2" width="0.9" height="11.1"/>
		<rect x="117.5" y="55.7" class="st2" width="0.9" height="7.7"/>
		<path class="st2" d="M122.8,55.7h0.9v1.2c0.2-0.6,0.5-1,1-1.2c0.3-0.1,0.8-0.2,1.4-0.2h0.2c0.8,0,1.4,0.1,1.7,0.2
			c0.6,0.2,1,0.7,1.2,1.4c0.2-0.7,0.6-1.2,1.2-1.4c0.3-0.1,0.9-0.2,1.7-0.2c1.1,0,1.8,0.2,2.3,0.5c0.6,0.5,0.9,1.4,0.9,2.7v4.7h-0.9
			v-4.7c0-0.9-0.2-1.5-0.6-1.8c-0.3-0.2-0.9-0.3-1.6-0.3h-0.3c-0.7,0-1.3,0.1-1.6,0.3c-0.5,0.3-0.8,0.9-0.8,1.8v4.7h-0.9v-4.7
			c0-0.9-0.2-1.6-0.7-1.9c-0.3-0.2-0.9-0.3-1.7-0.3c-0.8,0-1.5,0.1-1.8,0.3c-0.5,0.3-0.7,1-0.7,2.1v4.4h-0.9V55.7z"/>
	</g>
</g>
</svg>
